<?xml version="1.0" encoding="UTF-8" standalone="no"?>
<!-- Created with Inkscape (http://www.inkscape.org/) -->

<svg
   xmlns:dc="http://purl.org/dc/elements/1.1/"
   xmlns:cc="http://creativecommons.org/ns#"
   xmlns:rdf="http://www.w3.org/1999/02/22-rdf-syntax-ns#"
   xmlns:svg="http://www.w3.org/2000/svg"
   xmlns="http://www.w3.org/2000/svg"
   xmlns:sodipodi="http://sodipodi.sourceforge.net/DTD/sodipodi-0.dtd"
   xmlns:inkscape="http://www.inkscape.org/namespaces/inkscape"
   width="2048"
   height="450"
   viewBox="0 0 541.86666 119.0625"
   version="1.1"
   id="svg8"
   inkscape:version="0.92.4 (33fec40, 2019-01-16)"
   sodipodi:docname="geo2max_logo_long.svg"
   inkscape:export-filename="/home/ryan/Pictures/geo2max_long.png"
   inkscape:export-xdpi="7.8540058"
   inkscape:export-ydpi="7.8540058">
  <defs
     id="defs2" />
  <sodipodi:namedview
     id="base"
     pagecolor="#ffffff"
     bordercolor="#666666"
     borderopacity="1.0"
     inkscape:pageopacity="0.0"
     inkscape:pageshadow="2"
     inkscape:zoom="0.5"
     inkscape:cx="736.386"
     inkscape:cy="272"
     inkscape:document-units="mm"
     inkscape:current-layer="layer1"
     showgrid="false"
     units="px"
     inkscape:window-width="1853"
     inkscape:window-height="1025"
     inkscape:window-x="87"
     inkscape:window-y="1107"
     inkscape:window-maximized="1"
     inkscape:showpageshadow="false"
     borderlayer="true"
     showborder="false"
     inkscape:pagecheckerboard="true" />
  <metadata
     id="metadata5">
    <rdf:RDF>
      <cc:Work
         rdf:about="">
        <dc:format>image/svg+xml</dc:format>
        <dc:type
           rdf:resource="http://purl.org/dc/dcmitype/StillImage" />
        <dc:title />
      </cc:Work>
    </rdf:RDF>
  </metadata>
  <g
     inkscape:label="Layer 1"
     inkscape:groupmode="layer"
     id="layer1"
     transform="translate(0,-177.93749)"
     style="display:inline">
    <flowRoot
       xml:space="preserve"
       id="flowRoot4544"
       style="font-style:normal;font-variant:normal;font-weight:normal;font-stretch:normal;font-size:40px;line-height:1.25;font-family:monospace;-inkscape-font-specification:monospace;letter-spacing:0px;word-spacing:0px;fill:#28a745;fill-opacity:1;stroke:none"
       transform="matrix(0.28116458,0,0,0.3189322,265.32743,9.2619276)"
       inkscape:label="MX"><flowRegion
         id="flowRegion4546"
         style="font-style:normal;font-variant:normal;font-weight:normal;font-stretch:normal;font-family:monospace;-inkscape-font-specification:monospace;fill:#28a745;fill-opacity:1"><rect
           id="rect4548"
           width="1170.7848"
           height="504.32239"
           x="44"
           y="518"
           style="font-style:normal;font-variant:normal;font-weight:normal;font-stretch:normal;font-family:monospace;-inkscape-font-specification:monospace;fill:#28a745;fill-opacity:1" /></flowRegion><flowPara
         id="flowPara4550"
         style="font-style:normal;font-variant:normal;font-weight:normal;font-stretch:normal;font-size:371.09259033px;font-family:sans-serif;-inkscape-font-specification:sans-serif;fill:#28a745;fill-opacity:1">M   X</flowPara></flowRoot>    <g
       id="g5221"
       transform="matrix(0.20513457,0,0,0.25995993,366.0952,172.87604)"
       style="fill:#28a745;fill-opacity:1"
       inkscape:label="A">
      <desc
         id="desc5235">https://www.svgrepo.com/svg/141215/mountain-road</desc>
      <g
         id="g5158"
         style="fill:#28a745;fill-opacity:1">
        <g
           id="g5156"
           style="fill:#28a745;fill-opacity:1">
          <path
             id="path5142"
             d="m 254.316,412.012 c 0.005,0.002 0.01,0 0.016,-0.002 -0.006,-0.004 -0.012,-0.008 -0.018,-0.012 z"
             inkscape:connector-curvature="0"
             style="fill:#28a745;fill-opacity:1" />
          <path
             id="path5144"
             d="m 151.332,157.701 c 0.267,7.938 2.186,16.49 6.558,24 4.333,7.539 10.997,13.987 19.596,19.086 8.553,5.14 18.935,8.994 30.308,11.778 36.521,8.846 57.097,10.842 85.226,22.033 7.663,3.103 15.333,6.701 22.972,10.736 7.614,4.146 15.179,8.803 22.556,14.14 7.383,5.313 14.533,11.438 21.262,18.271 6.722,6.84 12.994,14.461 18.496,22.748 5.511,8.28 10.233,17.219 13.979,26.443 3.758,9.223 6.531,18.707 8.395,28.041 1.868,9.34 2.839,18.521 3.142,27.279 0.303,8.77 -0.051,17.121 -0.823,24.969 -0.013,0.129 -0.03,0.254 -0.043,0.383 h 77.71 c 0,0 -137.859,-338.957 -240.33,-338.957 -26.173,0 -54.652,22.117 -82.555,55.045 -1.23,3.057 -2.793,7.39 -4.132,12.886 -1.431,5.887 -2.594,13.16 -2.317,21.119 z"
             inkscape:connector-curvature="0"
             style="fill:#28a745;fill-opacity:1" />
          <path
             id="path5146"
             d="m 350.343,400.86 c 1.036,-4.693 2.159,-11.037 2.712,-17.479 0.572,-6.432 0.572,-12.928 0.265,-17.787 -0.193,-2.43 -0.332,-4.45 -0.519,-5.862 -0.178,-1.411 -0.277,-2.218 -0.277,-2.218 l -17.275,1.904 c 0,0 0.052,0.682 0.145,1.875 0.098,1.191 0.12,2.912 0.187,4.961 0.052,4.111 -0.226,9.609 -0.988,15.076 -0.749,5.469 -1.988,10.885 -3.091,14.904 -0.579,2.008 -1.051,3.68 -1.438,4.838 -0.372,1.16 -0.582,1.824 -0.582,1.824 l 15.562,4.709 h 3.643 c 0.079,-0.312 0.175,-0.666 0.29,-1.107 0.373,-1.345 0.825,-3.3 1.366,-5.638 z"
             inkscape:connector-curvature="0"
             style="fill:#28a745;fill-opacity:1" />
          <path
             id="path5148"
             d="m 271.271,395.469 c 3.317,-4.172 6.662,-8.971 9.51,-14.057 2.848,-5.102 5.197,-10.402 6.676,-15.94 1.455,-5.552 2.125,-11.472 0.95,-18.503 -1.17,-6.982 -4.358,-15.108 -9.995,-23.48 -2.811,-4.178 -6.157,-8.4 -9.914,-12.598 -3.857,-4.143 -8.059,-8.288 -12.648,-12.279 -9.168,-8.007 -19.677,-15.477 -30.669,-22.353 -6.212,-3.824 -20.309,-11.435 -21.99,-12.36 -1.678,-0.93 -3.347,-1.857 -5.014,-2.779 -1.65,-0.969 -3.295,-1.936 -4.932,-2.897 -1.621,-1.011 -3.234,-2.017 -4.846,-3.017 -6.396,-4.104 -12.538,-8.535 -18.283,-13.354 -5.744,-4.825 -11.078,-10.078 -15.788,-15.713 -4.722,-5.61 -8.749,-11.71 -11.889,-17.993 -1.543,-3.163 -2.916,-6.331 -3.974,-9.553 -0.574,-1.583 -0.996,-3.219 -1.455,-4.797 -0.386,-1.61 -0.789,-3.181 -1.062,-4.77 -0.612,-3.151 -0.96,-6.26 -1.106,-9.271 -0.176,-3.007 -0.092,-5.927 0.113,-8.72 0.424,-5.592 1.5,-10.685 2.85,-15.257 1.686,-5.577 3.756,-10.381 5.895,-14.53 C 67.83,240.833 0,407.608 0,407.608 h 260.096 c 0.576,-0.531 1.183,-1.105 1.818,-1.727 2.768,-2.695 6.035,-6.24 9.357,-10.412 z"
             inkscape:connector-curvature="0"
             style="fill:#28a745;fill-opacity:1" />
          <path
             id="path5150"
             d="m 165.768,209.805 c -0.637,-0.614 -1.396,-1.268 -2.15,-2.051 -3.08,-3.058 -6.902,-7.46 -9.91,-12.411 -3.07,-4.916 -5.237,-10.346 -6.402,-14.548 -0.574,-2.103 -0.951,-3.885 -1.183,-5.14 -0.21,-1.26 -0.333,-1.979 -0.333,-1.979 l -2.938,0.357 c 0,0 0.088,0.762 0.241,2.096 0.183,1.33 0.479,3.229 0.979,5.484 1.005,4.501 3.021,10.4 6.031,15.816 2.951,5.446 6.793,10.35 9.91,13.766 0.758,0.877 1.525,1.608 2.17,2.295 0.646,0.687 1.234,1.255 1.728,1.714 0.978,0.929 1.538,1.461 1.538,1.461 l 3.535,-4.032 c 0,0 -0.55,-0.474 -1.511,-1.299 -0.487,-0.412 -1.069,-0.919 -1.705,-1.529 z"
             inkscape:connector-curvature="0"
             style="fill:#28a745;fill-opacity:1" />
          <path
             id="path5152"
             d="m 333.528,309.333 c -0.218,-0.305 -0.504,-0.773 -0.934,-1.326 -0.844,-1.11 -2.019,-2.719 -3.485,-4.598 -2.991,-3.713 -7.177,-8.471 -11.693,-12.839 -1.125,-1.098 -2.299,-2.136 -3.428,-3.187 -0.566,-0.522 -1.128,-1.041 -1.687,-1.553 -0.575,-0.486 -1.143,-0.967 -1.7,-1.441 -1.121,-0.941 -2.199,-1.855 -3.224,-2.721 -1.041,-0.842 -2.049,-1.604 -2.967,-2.324 -0.92,-0.715 -1.764,-1.37 -2.514,-1.95 -0.757,-0.567 -1.435,-1.036 -1.98,-1.433 -1.102,-0.793 -1.73,-1.244 -1.73,-1.244 l -7.528,10.07 c 0,0 0.562,0.447 1.553,1.233 0.49,0.396 1.101,0.864 1.776,1.424 0.663,0.574 1.411,1.22 2.23,1.927 0.814,0.705 1.709,1.457 2.629,2.278 0.902,0.841 1.851,1.729 2.831,2.646 0.489,0.459 0.987,0.924 1.493,1.396 0.48,0.49 0.972,0.99 1.463,1.49 0.978,1.009 1.998,2.006 2.963,3.048 3.891,4.162 7.4,8.591 9.878,11.998 1.213,1.726 2.168,3.188 2.864,4.198 0.353,0.5 0.578,0.926 0.754,1.199 0.17,0.28 0.263,0.43 0.263,0.43 l 12.496,-8.249 c 10e-4,0.003 -0.111,-0.162 -0.323,-0.472 z"
             inkscape:connector-curvature="0"
             style="fill:#28a745;fill-opacity:1" />
          <path
             id="path5154"
             d="m 248.338,248.018 c -1.055,-0.434 -2.197,-0.9 -3.406,-1.395 -1.203,-0.494 -2.502,-0.957 -3.826,-1.467 -2.667,-0.99 -5.482,-2.117 -8.357,-3.082 -5.162,-1.611 -11.203,-3.668 -12.438,-4.029 -1.229,-0.365 -2.331,-0.737 -3.383,-1.064 -1.042,-0.333 -1.999,-0.64 -2.843,-0.912 -0.848,-0.293 -1.586,-0.548 -2.192,-0.761 -1.214,-0.421 -1.911,-0.662 -1.911,-0.662 l -2.794,7.246 c 0,0 0.706,0.285 1.944,0.786 0.616,0.249 1.366,0.555 2.23,0.901 0.875,0.328 1.86,0.699 2.934,1.104 1.076,0.397 6.969,2.551 11.154,4.103 1.351,0.549 2.721,1.104 4.094,1.662 2.752,1.077 5.439,2.315 7.982,3.407 1.268,0.562 2.503,1.074 3.65,1.613 1.149,0.54 2.234,1.047 3.233,1.517 1.997,0.948 3.673,1.711 4.827,2.285 1.15,0.581 1.805,0.912 1.805,0.912 l 4.303,-9.217 c 0,0 -0.695,-0.307 -1.912,-0.848 -1.221,-0.529 -2.987,-1.229 -5.094,-2.099 z"
             inkscape:connector-curvature="0"
             style="fill:#28a745;fill-opacity:1" />
        </g>
      </g>
      <g
         id="g5160"
         style="fill:#28a745;fill-opacity:1" />
      <g
         id="g5162"
         style="fill:#28a745;fill-opacity:1" />
      <g
         id="g5164"
         style="fill:#28a745;fill-opacity:1" />
      <g
         id="g5166"
         style="fill:#28a745;fill-opacity:1" />
      <g
         id="g5168"
         style="fill:#28a745;fill-opacity:1" />
      <g
         id="g5170"
         style="fill:#28a745;fill-opacity:1" />
      <g
         id="g5172"
         style="fill:#28a745;fill-opacity:1" />
      <g
         id="g5174"
         style="fill:#28a745;fill-opacity:1" />
      <g
         id="g5176"
         style="fill:#28a745;fill-opacity:1" />
      <g
         id="g5178"
         style="fill:#28a745;fill-opacity:1" />
      <g
         id="g5180"
         style="fill:#28a745;fill-opacity:1" />
      <g
         id="g5182"
         style="fill:#28a745;fill-opacity:1" />
      <g
         id="g5184"
         style="fill:#28a745;fill-opacity:1" />
      <g
         id="g5186"
         style="fill:#28a745;fill-opacity:1" />
      <g
         id="g5188"
         style="fill:#28a745;fill-opacity:1" />
    </g>
    <g
       id="g1378"
       transform="matrix(1.7793428,0,0,1.866365,151.96183,190.28833)"
       style="fill:#007bff;fill-opacity:1"
       inkscape:label="O">
      <desc
         id="desc1380">https://www.svgrepo.com/svg/12661/earth</desc>
      <g
         id="g1316"
         style="fill:#007bff;fill-opacity:1">
        <g
           id="g1314"
           style="fill:#007bff;fill-opacity:1">
          <polygon
             id="polygon1302"
             points="35.514,12.057 36.376,11.974 36.821,11.445 36.348,11.261 36.089,10.963 35.7,10.333 35.514,9.442 34.783,9.591 34.578,9.905 34.578,10.259 34.93,10.5 35.432,10.815 35.479,11.176 34.938,11.288 34.866,12.057 "
             style="fill:#007bff;fill-opacity:1" />
          <polygon
             id="polygon1304"
             points="33.819,10.583 33.374,11.297 33.374,11.76 33.893,11.76 34.809,11.111 34.848,10.629 34.419,10.444 "
             style="fill:#007bff;fill-opacity:1" />
          <path
             id="path1306"
             d="m 22.459,13.158 -0.132,0.34 h -0.639 v 0.33 h 0.152 c 0,0 0.009,0.07 0.022,0.162 l 0.392,-0.033 0.245,-0.152 0.064,-0.307 0.317,-0.027 0.125,-0.258 -0.291,-0.06 z"
             inkscape:connector-curvature="0"
             style="fill:#007bff;fill-opacity:1" />
          <polygon
             id="polygon1308"
             points="21.02,13.498 20.812,13.757 20.787,14.08 21.25,14.041 21.298,13.717 "
             style="fill:#007bff;fill-opacity:1" />
          <path
             id="path1310"
             d="M 48.619,24.061 C 48.612,23.35 48.576,22.644 48.509,21.949 48.284,19.632 47.73,17.411 46.9,15.329 46.838,15.174 46.781,15.017 46.715,14.864 45.609,12.251 44.056,9.872 42.155,7.819 42.03,7.685 41.903,7.553 41.776,7.423 41.417,7.05 41.048,6.686 40.666,6.337 36.344,2.402 30.604,0 24.312,0 17.967,0 12.186,2.445 7.852,6.44 6.842,7.371 5.914,8.387 5.072,9.475 1.896,13.583 0,18.729 0,24.312 c 0,13.407 10.907,24.313 24.313,24.313 9.43,0 17.617,-5.4 21.647,-13.268 0.862,-1.682 1.533,-3.475 1.985,-5.354 0.115,-0.477 0.214,-0.956 0.3,-1.441 0.245,-1.381 0.379,-2.801 0.379,-4.25 10e-4,-0.084 -0.004,-0.167 -0.005,-0.251 z m -4.576,-9.717 0.141,-0.158 c 0.185,0.359 0.358,0.724 0.523,1.094 l -0.23,-0.009 -0.434,0.06 z M 40.53,10.102 40.534,9.016 c 0.382,0.405 0.75,0.822 1.102,1.254 l -0.438,0.652 -1.531,-0.014 -0.096,-0.319 z M 11.202,7.403 V 7.362 h 0.487 l 0.042,-0.167 h 0.797 v 0.348 l -0.229,0.306 h -1.098 z m 0.778,1.085 c 0,0 0.487,-0.083 0.529,-0.083 0.042,0 0,0.486 0,0.486 L 11.411,8.96 11.202,8.71 Z m 33.612,9.651 h -1.779 l -1.084,-0.807 -1.141,0.111 v 0.696 h -0.361 l -0.39,-0.278 -1.976,-0.501 v -1.28 l -2.504,0.195 -0.776,0.417 h -0.994 l -0.487,-0.049 -1.207,0.67 v 1.261 l -2.467,1.78 0.205,0.76 h 0.5 L 31,21.838 l -0.352,0.129 -0.019,1.892 2.132,2.428 h 0.928 l 0.056,-0.148 h 1.668 l 0.481,-0.445 h 0.946 l 0.519,0.52 1.41,0.146 -0.187,1.875 1.565,2.763 -0.824,1.575 0.056,0.742 0.649,0.647 v 1.784 l 0.852,1.146 v 1.482 h 0.736 c -4.096,5.029 -10.33,8.25 -17.305,8.25 C 12.009,46.625 2,36.615 2,24.312 2,21.215 2.636,18.263 3.781,15.58 V 14.884 L 4.579,13.915 C 4.856,13.392 5.153,12.882 5.47,12.385 L 5.506,12.79 4.58,13.915 C 4.293,14.457 4.025,15.011 3.782,15.58 v 1.27 l 0.927,0.446 v 1.765 l 0.889,1.517 0.723,0.111 0.093,-0.52 -0.853,-1.316 -0.167,-1.279 h 0.5 l 0.211,1.316 1.233,1.799 -0.318,0.581 0.784,1.199 1.947,0.482 v -0.315 l 0.779,0.111 -0.074,0.556 0.612,0.112 0.945,0.258 1.335,1.521 1.705,0.129 0.167,1.391 -1.167,0.816 -0.055,1.242 -0.167,0.76 1.688,2.113 0.129,0.724 c 0,0 0.612,0.166 0.687,0.166 0.074,0 1.372,0.983 1.372,0.983 v 3.819 l 0.463,0.13 -0.315,1.762 0.779,1.039 -0.144,1.746 1.029,1.809 1.321,1.154 1.328,0.024 0.13,-0.427 -0.976,-0.822 0.056,-0.408 0.175,-0.5 0.037,-0.51 -0.66,-0.02 -0.333,-0.418 0.548,-0.527 0.074,-0.398 -0.612,-0.175 0.036,-0.37 0.872,-0.132 1.326,-0.637 0.445,-0.816 1.391,-1.78 -0.316,-1.392 0.427,-0.741 1.279,0.039 0.861,-0.682 0.278,-2.686 0.955,-1.213 0.167,-0.779 -0.871,-0.279 -0.575,-0.943 -1.965,-0.02 -1.558,-0.594 -0.074,-1.111 -0.52,-0.909 -1.409,-0.021 -0.814,-1.278 -0.723,-0.353 -0.037,0.39 -1.316,0.078 -0.482,-0.671 -1.373,-0.279 -1.131,1.307 -1.78,-0.302 -0.129,-2.006 -1.299,-0.222 0.521,-0.984 -0.149,-0.565 -1.707,1.141 -1.074,-0.131 -0.383,-0.839 0.234,-0.865 0.592,-1.091 1.363,-0.69 2.632,-0.001 -0.007,0.803 0.946,0.44 -0.075,-1.372 0.682,-0.686 1.376,-0.904 0.094,-0.636 1.372,-1.428 1.459,-0.808 -0.129,-0.106 0.988,-0.93 0.362,0.096 0.166,0.208 0.375,-0.416 0.092,-0.041 -0.411,-0.058 -0.417,-0.139 v -0.4 l 0.221,-0.181 h 0.487 l 0.223,0.098 0.193,0.39 0.236,-0.036 v -0.034 l 0.068,0.023 0.684,-0.105 0.097,-0.334 0.39,0.098 v 0.362 l -0.362,0.249 h 10e-4 l 0.053,0.397 1.239,0.382 c 0,0 10e-4,0.005 0.003,0.015 l 0.285,-0.024 0.019,-0.537 -0.982,-0.447 -0.056,-0.258 0.815,-0.278 0.036,-0.78 -0.852,-0.519 -0.056,-1.315 -1.168,0.574 h -0.426 l 0.112,-1.001 -1.59,-0.375 -0.658,0.497 v 1.516 l -1.183,0.375 -0.474,0.988 -0.514,0.083 V 10.551 L 16.903,10.397 16.347,10.035 16.123,9.216 18.112,8.052 19.085,7.756 19.183,8.41 19.725,8.382 19.767,8.053 20.334,7.972 20.344,7.857 20.1,7.756 20.044,7.408 l 0.697,-0.059 0.421,-0.438 0.023,-0.032 0.005,0.002 0.128,-0.132 1.465,-0.185 0.648,0.55 -1.699,0.905 2.162,0.51 0.28,-0.723 h 0.945 L 25.453,7.176 24.785,7.009 V 6.212 L 22.69,5.284 21.244,5.451 20.428,5.878 20.484,6.916 19.631,6.786 19.5,6.212 20.317,5.47 18.834,5.396 l -0.426,0.129 -0.185,0.5 0.556,0.094 -0.111,0.556 -0.945,0.056 -0.148,0.37 -1.371,0.038 c 0,0 -0.038,-0.778 -0.093,-0.778 -0.055,0 1.075,-0.019 1.075,-0.019 L 18.003,5.544 17.557,5.321 16.964,5.897 15.98,5.841 15.387,5.025 H 14.126 L 12.81,6.008 h 1.206 l 0.11,0.353 -0.313,0.291 1.335,0.037 0.204,0.482 L 13.849,7.115 13.776,6.744 12.831,6.54 12.33,6.262 11.205,6.271 C 14.888,3.588 19.417,2 24.312,2 c 5.642,0 10.797,2.109 14.73,5.574 l -0.265,0.474 -1.029,0.403 -0.434,0.471 0.1,0.549 0.531,0.074 0.32,0.8 0.916,-0.369 0.151,1.07 h -0.276 l -0.752,-0.111 -0.834,0.14 -0.807,1.14 -1.154,0.181 -0.167,0.988 0.487,0.115 -0.141,0.635 -1.146,-0.23 -1.051,0.23 -0.223,0.585 0.182,1.228 0.617,0.289 1.035,-0.006 0.699,-0.063 0.213,-0.556 1.092,-1.419 0.719,0.147 0.708,-0.64 0.132,0.5 1.742,1.175 -0.213,0.286 -0.785,-0.042 0.302,0.428 0.483,0.106 0.566,-0.236 -0.012,-0.682 0.251,-0.126 -0.202,-0.214 -1.162,-0.648 -0.306,-0.861 h 0.966 l 0.309,0.306 0.832,0.717 0.035,0.867 0.862,0.918 0.321,-1.258 0.597,-0.326 0.112,1.029 0.583,0.64 1.163,-0.02 c 0.225,0.579 0.427,1.168 0.604,1.769 z m -32.331,-7.093 0.584,-0.278 0.528,0.126 -0.182,0.709 -0.57,0.181 z m 3.099,1.669 v 0.459 h -1.334 l -0.5,-0.139 0.125,-0.32 0.641,-0.265 h 0.876 v 0.265 z m 0.614,0.64 V 13.8 l -0.334,0.215 -0.416,0.077 c 0,0 0,-0.667 0,-0.737 z m -0.376,-0.181 v -0.529 l 0.459,0.418 z m 0.209,1.07 v 0.433 l -0.319,0.32 h -0.709 l 0.111,-0.486 0.335,-0.029 0.069,-0.167 z m -1.766,-0.889 h 0.737 l -0.945,1.321 -0.39,-0.209 0.084,-0.556 z m 3.018,0.737 v 0.432 H 17.35 l -0.194,-0.28 v -0.402 h 0.056 z m -0.655,-0.594 0.202,-0.212 0.341,0.212 -0.273,0.225 z m 28.55,5.767 0.07,-0.082 c 0.029,0.126 0.06,0.252 0.088,0.38 z"
             inkscape:connector-curvature="0"
             style="fill:#007bff;fill-opacity:1" />
          <path
             id="path1312"
             d="M 3.782,14.884 V 15.58 C 4.025,15.012 4.293,14.458 4.58,13.915 Z"
             inkscape:connector-curvature="0"
             style="fill:#007bff;fill-opacity:1" />
        </g>
      </g>
      <g
         id="g1318"
         style="fill:#007bff;fill-opacity:1" />
      <g
         id="g1320"
         style="fill:#007bff;fill-opacity:1" />
      <g
         id="g1322"
         style="fill:#007bff;fill-opacity:1" />
      <g
         id="g1324"
         style="fill:#007bff;fill-opacity:1" />
      <g
         id="g1326"
         style="fill:#007bff;fill-opacity:1" />
      <g
         id="g1328"
         style="fill:#007bff;fill-opacity:1" />
      <g
         id="g1330"
         style="fill:#007bff;fill-opacity:1" />
      <g
         id="g1332"
         style="fill:#007bff;fill-opacity:1" />
      <g
         id="g1334"
         style="fill:#007bff;fill-opacity:1" />
      <g
         id="g1336"
         style="fill:#007bff;fill-opacity:1" />
      <g
         id="g1338"
         style="fill:#007bff;fill-opacity:1" />
      <g
         id="g1340"
         style="fill:#007bff;fill-opacity:1" />
      <g
         id="g1342"
         style="fill:#007bff;fill-opacity:1" />
      <g
         id="g1344"
         style="fill:#007bff;fill-opacity:1" />
      <g
         id="g1346"
         style="fill:#007bff;fill-opacity:1" />
    </g>
    <flowRoot
       xml:space="preserve"
       id="flowRoot3721"
       style="font-style:normal;font-variant:normal;font-weight:normal;font-stretch:normal;font-size:30.57962418px;line-height:0;font-family:'Samyak Malayalam';-inkscape-font-specification:'Samyak Malayalam';letter-spacing:0px;word-spacing:0px;fill:#007bff;fill-opacity:1;stroke:none"
       transform="matrix(3.4492798,0,0,3.8451673,-243.75816,22.600082)"
       inkscape:label="Ge"><flowRegion
         id="flowRegion3723"
         style="font-style:normal;font-variant:normal;font-weight:normal;font-stretch:normal;font-size:30.57962418px;line-height:0;font-family:'Samyak Malayalam';-inkscape-font-specification:'Samyak Malayalam';fill:#007bff;fill-opacity:1"><rect
           id="rect3725"
           width="865.71429"
           height="728.57141"
           x="71.428574"
           y="58.285713"
           style="font-style:normal;font-variant:normal;font-weight:normal;font-stretch:normal;font-size:30.57962418px;line-height:0;font-family:'Samyak Malayalam';-inkscape-font-specification:'Samyak Malayalam';fill:#007bff;fill-opacity:1" /></flowRegion><flowPara
         id="flowPara3727"
         style="font-style:normal;font-variant:normal;font-weight:normal;font-stretch:normal;font-family:sans-serif;-inkscape-font-specification:sans-serif;fill:#007bff;fill-opacity:1;stroke:none;stroke-opacity:1">Ge </flowPara><flowPara
         style="font-style:normal;font-variant:normal;font-weight:normal;font-stretch:normal;font-family:sans-serif;-inkscape-font-specification:sans-serif;fill:#007bff;fill-opacity:1"
         id="flowPara3735" /></flowRoot>    <flowRoot
       xml:space="preserve"
       id="flowRoot3721-4"
       style="font-style:normal;font-variant:normal;font-weight:normal;font-stretch:normal;font-size:30.57962418px;line-height:0;font-family:'Samyak Malayalam';-inkscape-font-specification:'Samyak Malayalam';letter-spacing:0px;word-spacing:0px;fill:#007bff;fill-opacity:1;stroke:none"
       transform="matrix(3.4492798,0,0,3.8451674,-9.4089286,19.52515)"
       inkscape:label="2"><flowRegion
         id="flowRegion3723-6"
         style="font-style:normal;font-variant:normal;font-weight:normal;font-stretch:normal;font-size:30.57962418px;line-height:0;font-family:'Samyak Malayalam';-inkscape-font-specification:'Samyak Malayalam';fill:#007bff;fill-opacity:1"><rect
           id="rect3725-4"
           width="865.71429"
           height="728.57141"
           x="71.428574"
           y="58.285713"
           style="font-style:normal;font-variant:normal;font-weight:normal;font-stretch:normal;font-size:30.57962418px;line-height:0;font-family:'Samyak Malayalam';-inkscape-font-specification:'Samyak Malayalam';fill:#007bff;fill-opacity:1" /></flowRegion><flowPara
         id="flowPara3727-9"
         style="font-style:normal;font-variant:normal;font-weight:normal;font-stretch:normal;font-size:64.99999762%;font-family:sans-serif;-inkscape-font-specification:sans-serif;baseline-shift:sub;fill:#007bff;fill-opacity:1;stroke:none;stroke-opacity:1">2</flowPara><flowPara
         style="font-style:normal;font-variant:normal;font-weight:normal;font-stretch:normal;font-family:sans-serif;-inkscape-font-specification:sans-serif;fill:#007bff;fill-opacity:1"
         id="flowPara3735-1" /></flowRoot>    <rect
       style="display:none;fill:none;fill-opacity:1;stroke:#ffffff;stroke-width:2.67674446;stroke-miterlimit:4;stroke-dasharray:none;stroke-opacity:1"
       id="rect1100"
       width="539.18988"
       height="116.38576"
       x="1.3383722"
       y="179.27588"
       inkscape:label="border" />
  </g>
</svg>
